# Wavefront OBJ file automatically generated by Tiled2Unity

# Vertices (Count = 155)
v -13518 -751 0
v -14269 -751 0
v -14269 0 0
v -13518 0 0
v -15020 -751 0
v -15020 0 0
v -12767 -1502 0
v -13518 -1502 0
v -12767 -751 0
v -14269 -1502 0
v -15020 -1502 0
v -3004 -2253 0
v -3755 -2253 0
v -3755 -1502 0
v -3004 -1502 0
v -4506 -2253 0
v -4506 -1502 0
v -5257 -2253 0
v -5257 -1502 0
v -6008 -2253 0
v -6008 -1502 0
v -6759 -2253 0
v -6759 -1502 0
v -7510 -2253 0
v -7510 -1502 0
v -8261 -2253 0
v -8261 -1502 0
v -9012 -2253 0
v -9012 -1502 0
v -9763 -2253 0
v -9763 -1502 0
v -10514 -2253 0
v -10514 -1502 0
v -11265 -2253 0
v -11265 -1502 0
v -12016 -2253 0
v -12767 -2253 0
v -12016 -1502 0
v -13518 -2253 0
v -14269 -2253 0
v -15020 -2253 0
v -3004 -3004 0
v -3755 -3004 0
v -4506 -3004 0
v -5257 -3004 0
v -6008 -3004 0
v -6759 -3004 0
v -7510 -3004 0
v -8261 -3004 0
v -9012 -3004 0
v -9763 -3004 0
v -10514 -3004 0
v -11265 -3004 0
v -12016 -3004 0
v -12767 -3004 0
v -13518 -3004 0
v -14269 -3004 0
v -15020 -3004 0
v -1502 -3755 0
v -2253 -3755 0
v -2253 -3004 0
v -1502 -3004 0
v -3004 -3755 0
v -3755 -3755 0
v -4506 -3755 0
v -5257 -3755 0
v -6008 -3755 0
v -6759 -3755 0
v -7510 -3755 0
v -8261 -3755 0
v -9012 -3755 0
v -9763 -3755 0
v -10514 -3755 0
v -11265 -3755 0
v -12016 -3755 0
v -12767 -3755 0
v -13518 -3755 0
v -14269 -3755 0
v -15020 -3755 0
v -1502 -4506 0
v -2253 -4506 0
v -3004 -4506 0
v -3755 -4506 0
v -4506 -4506 0
v -5257 -4506 0
v -6008 -4506 0
v -6759 -4506 0
v -7510 -4506 0
v -8261 -4506 0
v -9012 -4506 0
v -9763 -4506 0
v -10514 -4506 0
v -11265 -4506 0
v -12016 -4506 0
v -12767 -4506 0
v -13518 -4506 0
v -14269 -4506 0
v -1502 -5257 0
v -2253 -5257 0
v -3004 -5257 0
v -7510 -5257 0
v -8261 -5257 0
v -9012 -5257 0
v -9763 -5257 0
v -10514 -5257 0
v -11265 -5257 0
v -1502 -6008 0
v -2253 -6008 0
v -3004 -6008 0
v -7510 -6008 0
v -8261 -6008 0
v -9012 -6008 0
v -9763 -6008 0
v -10514 -6008 0
v -11265 -6008 0
v -12016 -6008 0
v -12016 -5257 0
v -12767 -6008 0
v -12767 -5257 0
v -13518 -6008 0
v -13518 -5257 0
v -14269 -6008 0
v -14269 -5257 0
v -751 -6759 0
v -1502 -6759 0
v -751 -6008 0
v -2253 -6759 0
v -3004 -6759 0
v -3755 -6759 0
v -3755 -6008 0
v -7510 -6759 0
v -8261 -6759 0
v -9012 -6759 0
v -9763 -6759 0
v -10514 -6759 0
v -11265 -6759 0
v -12016 -6759 0
v -12767 -6759 0
v -13518 -6759 0
v -14269 -6759 0
v -751 -7510 0
v -1502 -7510 0
v -2253 -7510 0
v -3004 -7510 0
v -3755 -7510 0
v -7510 -7510 0
v -8261 -7510 0
v -9012 -7510 0
v -9763 -7510 0
v -10514 -7510 0
v -11265 -7510 0
v -12016 -7510 0
v -12767 -7510 0
v -13518 -7510 0
v -14269 -7510 0

# Texture Coorindates (Count = 51)
vt 0.7501221 0.4994554
vt 0.75 0.2491221
vt 1 0.249
vt 1.000122 0.4993333
vt 0.7501221 0.2491221
vt 1 0.2491221
vt 1 0.4993333
vt 0.7501221 0.4993333
vt 0.5001221 0.4994554
vt 0.5 0.2491221
vt 0.75 0.249
vt 0.75 0.4994554
vt 0.75 0.7496667
vt 0.5001221 0.7496667
vt 0.0001220703 0.7497888
vt 0.25 0.7497888
vt 0.25 1
vt 0.0001220703 1
vt 0.2501221 0.7497888
vt 0.5 0.7497888
vt 0.5 1
vt 0.2501221 1
vt 0.25 1.000122
vt 0 1
vt 0.0001220703 0.7496667
vt 0.2501221 0.2491221
vt 0.5 0.4993333
vt 0.2501221 0.4993333
vt 0.0001220703 0.4994554
vt 0.25 0.4994554
vt 0.25 0.7496667
vt 0.2501221 0.4994554
vt 0.5 0.4994554
vt 0.5 0.7496667
vt 0.2501221 0.7496667
vt 0.5001221 0.2491221
vt 0.75 0.4993333
vt 0.5001221 0.4993333
vt 0.5001221 0.249
vt 1.000122 0.2491221
vt 1 0.4994554
vt 0.7501221 0.249
vt 0.7501221 0.7497888
vt 0.0001220703 1.000122
vt 0 0.7497888
vt 0.5001221 1.000122
vt 0.5 0.249
vt 0.75 0.7497888
vt 0 0.4993333
vt 1.000122 0.4994554
vt 1.000122 0.249

# Normal
vn 0 0 -1

# Groups (Count = 1)
g mesh_[00]_[00]
f  1/1/1  2/2/1  3/3/1  4/4/1 
f  2/5/1  5/6/1  6/7/1  3/8/1 
f  7/1/1  8/2/1  1/3/1  9/4/1 
f  8/9/1  10/10/1  2/11/1  1/8/1 
f  10/9/1  11/12/1  5/13/1  2/14/1 
f  12/15/1  13/16/1  14/17/1  15/18/1 
f  13/19/1  16/20/1  17/21/1  14/22/1 
f  16/19/1  18/20/1  19/21/1  17/22/1 
f  18/19/1  20/20/1  21/21/1  19/22/1 
f  20/19/1  22/20/1  23/21/1  21/22/1 
f  22/19/1  24/20/1  25/21/1  23/22/1 
f  24/19/1  26/20/1  27/21/1  25/22/1 
f  26/19/1  28/20/1  29/21/1  27/22/1 
f  28/19/1  30/20/1  31/21/1  29/22/1 
f  30/19/1  32/20/1  33/21/1  31/22/1 
f  32/19/1  34/23/1  35/24/1  33/25/1 
f  36/1/1  37/2/1  7/3/1  38/4/1 
f  37/9/1  39/10/1  8/11/1  7/8/1 
f  39/26/1  40/10/1  10/27/1  8/28/1 
f  40/9/1  41/12/1  11/13/1  10/14/1 
f  42/29/1  43/30/1  13/31/1  12/25/1 
f  43/32/1  44/33/1  16/34/1  13/35/1 
f  44/32/1  45/33/1  18/34/1  16/35/1 
f  45/32/1  46/33/1  20/34/1  18/35/1 
f  46/32/1  47/33/1  22/34/1  20/35/1 
f  47/32/1  48/33/1  24/34/1  22/35/1 
f  48/32/1  49/33/1  26/34/1  24/35/1 
f  49/32/1  50/33/1  28/34/1  26/35/1 
f  50/32/1  51/33/1  30/34/1  28/35/1 
f  51/32/1  52/33/1  32/34/1  30/35/1 
f  52/9/1  53/12/1  34/13/1  32/14/1 
f  53/1/1  54/2/1  36/3/1  34/4/1 
f  54/9/1  55/10/1  37/11/1  36/8/1 
f  55/26/1  56/10/1  39/27/1  37/28/1 
f  56/26/1  57/10/1  40/27/1  39/28/1 
f  57/9/1  58/12/1  41/13/1  40/14/1 
f  59/1/1  60/2/1  61/3/1  62/4/1 
f  60/5/1  63/6/1  42/7/1  61/8/1 
f  63/29/1  64/30/1  43/31/1  42/25/1 
f  64/32/1  65/33/1  44/34/1  43/35/1 
f  65/32/1  66/33/1  45/34/1  44/35/1 
f  66/32/1  67/33/1  46/34/1  45/35/1 
f  67/32/1  68/33/1  47/34/1  46/35/1 
f  68/32/1  69/33/1  48/34/1  47/35/1 
f  69/32/1  70/33/1  49/34/1  48/35/1 
f  70/32/1  71/33/1  50/34/1  49/35/1 
f  71/32/1  72/33/1  51/34/1  50/35/1 
f  72/32/1  73/33/1  52/34/1  51/35/1 
f  73/36/1  74/2/1  53/37/1  52/38/1 
f  74/9/1  75/10/1  54/11/1  53/8/1 
f  75/26/1  76/10/1  55/27/1  54/28/1 
f  76/26/1  77/10/1  56/27/1  55/28/1 
f  77/5/1  78/12/1  57/27/1  56/39/1 
f  78/40/1  79/41/1  58/37/1  57/42/1 
f  80/43/1  81/20/1  60/27/1  59/8/1 
f  81/9/1  82/12/1  63/13/1  60/14/1 
f  82/44/1  83/45/1  64/31/1  63/22/1 
f  83/46/1  84/23/1  65/31/1  64/14/1 
f  84/46/1  85/23/1  66/31/1  65/14/1 
f  85/46/1  86/23/1  67/31/1  66/14/1 
f  86/46/1  87/23/1  68/31/1  67/14/1 
f  87/46/1  88/23/1  69/31/1  68/14/1 
f  88/1/1  89/33/1  70/47/1  69/42/1 
f  89/32/1  90/33/1  71/34/1  70/35/1 
f  90/32/1  91/33/1  72/34/1  71/35/1 
f  91/32/1  92/33/1  73/34/1  72/35/1 
f  92/5/1  93/12/1  74/27/1  73/39/1 
f  93/1/1  94/48/1  75/34/1  74/38/1 
f  94/1/1  95/48/1  76/34/1  75/38/1 
f  95/1/1  96/48/1  77/34/1  76/38/1 
f  96/40/1  97/41/1  78/37/1  77/42/1 
f  98/43/1  99/20/1  81/27/1  80/8/1 
f  99/9/1  100/12/1  82/13/1  81/14/1 
f  101/29/1  102/30/1  89/31/1  88/25/1 
f  102/32/1  103/33/1  90/34/1  89/35/1 
f  103/32/1  104/33/1  91/34/1  90/35/1 
f  104/32/1  105/33/1  92/34/1  91/35/1 
f  105/9/1  106/12/1  93/13/1  92/14/1 
f  107/43/1  108/20/1  99/27/1  98/8/1 
f  108/9/1  109/12/1  100/13/1  99/14/1 
f  110/29/1  111/30/1  102/31/1  101/25/1 
f  111/32/1  112/33/1  103/34/1  102/35/1 
f  112/32/1  113/33/1  104/34/1  103/35/1 
f  113/32/1  114/33/1  105/34/1  104/35/1 
f  114/36/1  115/2/1  106/37/1  105/38/1 
f  115/19/1  116/20/1  117/21/1  106/22/1 
f  116/19/1  118/20/1  119/21/1  117/22/1 
f  118/19/1  120/20/1  121/21/1  119/22/1 
f  120/5/1  122/6/1  123/7/1  121/8/1 
f  124/1/1  125/2/1  107/3/1  126/4/1 
f  125/9/1  127/10/1  108/11/1  107/8/1 
f  127/36/1  128/2/1  109/37/1  108/38/1 
f  128/5/1  129/6/1  130/7/1  109/8/1 
f  131/29/1  132/30/1  111/31/1  110/25/1 
f  132/32/1  133/33/1  112/34/1  111/35/1 
f  133/32/1  134/33/1  113/34/1  112/35/1 
f  134/32/1  135/33/1  114/34/1  113/35/1 
f  135/32/1  136/33/1  115/34/1  114/35/1 
f  136/32/1  137/33/1  116/34/1  115/35/1 
f  137/32/1  138/33/1  118/34/1  116/35/1 
f  138/32/1  139/33/1  120/34/1  118/35/1 
f  139/19/1  140/45/1  122/49/1  120/28/1 
f  141/50/1  142/12/1  125/11/1  124/51/1 
f  142/1/1  143/48/1  127/34/1  125/38/1 
f  143/1/1  144/48/1  128/34/1  127/38/1 
f  144/40/1  145/41/1  129/37/1  128/42/1 
f  146/50/1  147/12/1  132/11/1  131/51/1 
f  147/46/1  148/23/1  133/31/1  132/14/1 
f  148/46/1  149/23/1  134/31/1  133/14/1 
f  149/46/1  150/23/1  135/31/1  134/14/1 
f  150/46/1  151/23/1  136/31/1  135/14/1 
f  151/46/1  152/23/1  137/31/1  136/14/1 
f  152/46/1  153/23/1  138/31/1  137/14/1 
f  153/46/1  154/23/1  139/31/1  138/14/1 
f  154/40/1  155/41/1  140/37/1  139/42/1 
